<svg width="76" height="76" viewBox="0 0 76 76" fill="none" xmlns="http://www.w3.org/2000/svg">
<rect width="76" height="76" rx="38" fill="url(#paint0_linear_46_24)"/>
<g filter="url(#filter0_d_46_24)">
<rect x="8" y="8" width="60" height="60" rx="30" fill="url(#paint1_linear_46_24)" shape-rendering="crispEdges"/>
<rect x="8" y="8" width="60" height="60" rx="30" stroke="url(#paint2_linear_46_24)" stroke-width="2" shape-rendering="crispEdges"/>
<g style="mix-blend-mode:overlay" opacity="0.2">
<path d="M21.7118 53.9999H26.1162C26.5447 53.9999 26.9552 53.8267 27.2584 53.5181L55.4308 24.8095C56.4483 23.7727 55.7278 21.9999 54.2887 21.9999H49.8842C49.4558 21.9999 49.0453 22.1732 48.742 22.4817L20.5696 51.1903C19.5522 52.2271 20.2726 53.9999 21.7118 53.9999Z" fill="white"/>
</g>
<path d="M31.2713 40.2857L30.1704 41.4075C29.5396 42.0502 28.5172 42.0502 27.8865 41.4075L19.6509 33.0157C18.9726 32.3245 19.453 31.1428 20.4122 31.1428H21.6302C22.0586 31.1428 22.4691 31.3161 22.7723 31.6246L31.2717 40.2857H31.2713Z" fill="white"/>
<path d="M55.4308 24.8095L44.7296 35.7142L41.3857 32.3067C40.7549 31.6639 40.7549 30.6221 41.3857 29.9793L48.7425 22.4817C49.0453 22.1732 49.4562 21.9999 49.8847 21.9999H54.2891C55.7278 21.9999 56.4483 23.7727 55.4313 24.8095H55.4308Z" fill="white"/>
<path d="M55.5887 44.857H54.3708C53.9423 44.857 53.5319 44.6837 53.2286 44.3752L44.7292 35.7141L45.8301 34.5923C46.4608 33.9496 47.4832 33.9496 48.114 34.5923L56.3491 42.9841C57.0274 43.6753 56.547 44.857 55.5879 44.857H55.5887Z" fill="white"/>
<path d="M54.2891 53.9999H49.8846C49.4562 53.9999 49.0457 53.8267 48.7424 53.5181L20.5696 24.8095C19.5521 23.7727 20.2731 21.9999 21.7118 21.9999H26.1162C26.5447 21.9999 26.9551 22.1732 27.2584 22.4817L55.4313 51.1903C56.4487 52.2271 55.7282 53.9999 54.2891 53.9999Z" fill="white"/>
<path d="M34.6152 46.021L27.258 53.5182C26.9552 53.8267 26.5442 54 26.1158 54H21.7118C20.2731 54 19.5526 52.2272 20.5696 51.1904L31.2708 40.2857L34.6148 43.6933C35.2455 44.336 35.2455 45.3778 34.6148 46.0206L34.6152 46.021Z" fill="white"/>
</g>
<defs>
<filter id="filter0_d_46_24" x="3" y="4" width="70" height="70" filterUnits="userSpaceOnUse" color-interpolation-filters="sRGB">
<feFlood flood-opacity="0" result="BackgroundImageFix"/>
<feColorMatrix in="SourceAlpha" type="matrix" values="0 0 0 0 0 0 0 0 0 0 0 0 0 0 0 0 0 0 127 0" result="hardAlpha"/>
<feOffset dy="1"/>
<feGaussianBlur stdDeviation="2"/>
<feComposite in2="hardAlpha" operator="out"/>
<feColorMatrix type="matrix" values="0 0 0 0 0.903114 0 0 0 0 0.0992399 0 0 0 0 0 0 0 0 0.4 0"/>
<feBlend mode="normal" in2="BackgroundImageFix" result="effect1_dropShadow_46_24"/>
<feBlend mode="normal" in="SourceGraphic" in2="effect1_dropShadow_46_24" result="shape"/>
</filter>
<linearGradient id="paint0_linear_46_24" x1="0" y1="38" x2="76" y2="38" gradientUnits="userSpaceOnUse">
<stop stop-color="#F95743"/>
<stop offset="1" stop-color="#FCA91F"/>
</linearGradient>
<linearGradient id="paint1_linear_46_24" x1="38" y1="8" x2="38" y2="74.3462" gradientUnits="userSpaceOnUse">
<stop stop-color="#F95743"/>
<stop offset="1" stop-color="#FCA91F"/>
</linearGradient>
<linearGradient id="paint2_linear_46_24" x1="48.244" y1="8" x2="34.2777" y2="59.4345" gradientUnits="userSpaceOnUse">
<stop stop-color="white"/>
<stop offset="1" stop-color="white" stop-opacity="0"/>
</linearGradient>
</defs>
</svg>
