<svg width="32" height="32" viewBox="0 0 32 32" fill="none" xmlns="http://www.w3.org/2000/svg">
<rect x="0.5" y="0.5" width="31" height="31" rx="3.5" fill="currentColor" opacity="0.1"/>
<rect x="0.5" y="0.5" width="31" height="31" rx="3.5" stroke="currentColor" opacity="0.1"/>
<g clip-path="url(#clip0_1313_4646)">
<path d="M25.5533 7.99994C25.4625 7.99058 25.3709 7.99058 25.28 7.99994H6.61333C6.49369 8.00179 6.37485 8.01972 6.26 8.05328L15.8933 17.6466L25.5533 7.99994Z" fill="currentColor"/>
<path d="M26.54 8.92676L16.8333 18.5934C16.5835 18.8418 16.2456 18.9811 15.8933 18.9811C15.5411 18.9811 15.2032 18.8418 14.9533 18.5934L5.33333 9.00009C5.30376 9.10878 5.28808 9.22079 5.28667 9.33342V22.6668C5.28667 23.0204 5.42714 23.3595 5.67719 23.6096C5.92724 23.8596 6.26638 24.0001 6.62 24.0001H25.2867C25.6403 24.0001 25.9794 23.8596 26.2295 23.6096C26.4795 23.3595 26.62 23.0204 26.62 22.6668V9.33342C26.6147 9.19453 26.5877 9.05731 26.54 8.92676ZM7.53333 22.6668H6.60667V21.7134L11.4533 16.9068L12.3933 17.8468L7.53333 22.6668ZM25.2733 22.6668H24.34L19.48 17.8468L20.42 16.9068L25.2667 21.7134L25.2733 22.6668Z" fill="currentColor"/>
</g>
<defs>
<clipPath id="clip0_1313_4646">
<rect width="24" height="24" fill="white" transform="translate(4 4)"/>
</clipPath>
</defs>
</svg>
