<svg width="32" height="32" viewBox="0 0 32 32" fill="none" xmlns="http://www.w3.org/2000/svg">
<rect x="0.5" y="0.5" width="31" height="31" rx="3.5" fill="currentColor" opacity="0.1"/>
<rect x="0.5" y="0.5" width="31" height="31" rx="3.5" stroke="currentColor" opacity="0.1"/>
<path opacity="0.5" d="M6 16C6 12.229 6 10.343 7.172 9.172C8.344 8.001 10.229 8 14 8H18C21.771 8 23.657 8 24.828 9.172C25.999 10.344 26 12.229 26 16C26 19.771 26 21.657 24.828 22.828C23.656 23.999 21.771 24 18 24H14C10.229 24 8.343 24 7.172 22.828C6.001 21.656 6 19.771 6 16Z" fill="currentColor"/>
<path d="M16.75 14C16.75 13.8011 16.671 13.6103 16.5303 13.4697C16.3897 13.329 16.1989 13.25 16 13.25C15.8011 13.25 15.6103 13.329 15.4697 13.4697C15.329 13.6103 15.25 13.8011 15.25 14V14.701L14.643 14.351C14.5576 14.2976 14.4624 14.262 14.3629 14.2463C14.2635 14.2305 14.1619 14.2349 14.0642 14.2593C13.9665 14.2836 13.8747 14.3273 13.7943 14.3879C13.7139 14.4485 13.6465 14.5246 13.5961 14.6118C13.5458 14.699 13.5135 14.7954 13.5011 14.8953C13.4888 14.9952 13.4968 15.0966 13.5245 15.1934C13.5522 15.2902 13.5991 15.3804 13.6624 15.4587C13.7257 15.537 13.8041 15.6017 13.893 15.649L14.5 15.999L13.893 16.35C13.7206 16.4495 13.5948 16.6133 13.5432 16.8055C13.4916 16.9978 13.5185 17.2026 13.618 17.375C13.7174 17.5474 13.8813 17.6732 14.0735 17.7248C14.2658 17.7764 14.4706 17.7495 14.643 17.65L15.25 17.299V18C15.25 18.1989 15.329 18.3897 15.4697 18.5303C15.6103 18.671 15.8011 18.75 16 18.75C16.1989 18.75 16.3897 18.671 16.5303 18.5303C16.671 18.3897 16.75 18.1989 16.75 18V17.3L17.357 17.65C17.5294 17.7495 17.7342 17.7764 17.9264 17.7248C18.1187 17.6732 18.2825 17.5474 18.382 17.375C18.4814 17.2026 18.5083 16.9978 18.4568 16.8055C18.4052 16.6133 18.2794 16.4495 18.107 16.35L17.5 16L18.107 15.65C18.2794 15.5505 18.4052 15.3867 18.4568 15.1945C18.5083 15.0022 18.4814 14.7974 18.382 14.625C18.2825 14.4526 18.1187 14.3268 17.9264 14.2752C17.7342 14.2236 17.5294 14.2505 17.357 14.35L16.75 14.7V14ZM10.733 13.25C10.9319 13.25 11.1227 13.329 11.2633 13.4697C11.404 13.6103 11.483 13.8011 11.483 14V14.7L12.089 14.35C12.2614 14.2505 12.4662 14.2236 12.6584 14.2752C12.8507 14.3268 13.0145 14.4526 13.114 14.625C13.2134 14.7974 13.2403 15.0022 13.1888 15.1945C13.1372 15.3867 13.0114 15.5505 12.839 15.65L12.232 16L12.839 16.35C12.9243 16.3992 12.9992 16.4648 13.0592 16.543C13.1192 16.6211 13.1632 16.7104 13.1888 16.8055C13.2143 16.9007 13.2208 17 13.208 17.0977C13.1952 17.1954 13.1632 17.2896 13.114 17.375C13.0647 17.4604 12.9992 17.5352 12.921 17.5952C12.8428 17.6552 12.7536 17.6992 12.6584 17.7248C12.5633 17.7503 12.464 17.7569 12.3663 17.744C12.2686 17.7312 12.1743 17.6992 12.089 17.65L11.483 17.3V18C11.483 18.1989 11.404 18.3897 11.2633 18.5303C11.1227 18.671 10.9319 18.75 10.733 18.75C10.5341 18.75 10.3433 18.671 10.2027 18.5303C10.062 18.3897 9.98299 18.1989 9.98299 18V17.299L9.37499 17.649C9.20339 17.7404 9.003 17.7616 8.81609 17.7081C8.62918 17.6546 8.47035 17.5306 8.37308 17.3622C8.27581 17.1939 8.24771 16.9944 8.29471 16.8057C8.3417 16.6171 8.46012 16.454 8.62499 16.351L9.23199 16L8.62499 15.65C8.53963 15.6008 8.46481 15.5352 8.40479 15.457C8.34477 15.3789 8.30074 15.2896 8.27521 15.1945C8.24967 15.0993 8.24313 15 8.25596 14.9023C8.26879 14.8046 8.30074 14.7104 8.34999 14.625C8.39924 14.5396 8.46481 14.4648 8.54297 14.4048C8.62114 14.3448 8.71036 14.3008 8.80554 14.2752C8.90072 14.2497 8.99999 14.2431 9.0977 14.256C9.19541 14.2688 9.28963 14.3008 9.37499 14.35L9.98299 14.701V14C9.98299 13.8011 10.062 13.6103 10.2027 13.4697C10.3433 13.329 10.5341 13.25 10.733 13.25ZM22.018 14C22.018 13.8011 21.939 13.6103 21.7983 13.4697C21.6577 13.329 21.4669 13.25 21.268 13.25C21.0691 13.25 20.8783 13.329 20.7377 13.4697C20.597 13.6103 20.518 13.8011 20.518 14V14.701L19.911 14.351C19.8256 14.2976 19.7304 14.262 19.6309 14.2463C19.5315 14.2305 19.4299 14.2349 19.3322 14.2593C19.2345 14.2836 19.1427 14.3273 19.0623 14.3879C18.9819 14.4485 18.9145 14.5246 18.8641 14.6118C18.8138 14.699 18.7815 14.7954 18.7691 14.8953C18.7568 14.9952 18.7648 15.0966 18.7925 15.1934C18.8202 15.2902 18.8671 15.3804 18.9304 15.4587C18.9937 15.537 19.0721 15.6017 19.161 15.649L19.768 15.999L19.161 16.35C19.0756 16.3992 19.0008 16.4648 18.9408 16.543C18.8808 16.6211 18.8367 16.7104 18.8112 16.8055C18.7857 16.9007 18.7791 17 18.792 17.0977C18.8048 17.1954 18.8367 17.2896 18.886 17.375C18.9352 17.4604 19.0008 17.5352 19.079 17.5952C19.1571 17.6552 19.2464 17.6992 19.3415 17.7248C19.4367 17.7503 19.536 17.7569 19.6337 17.744C19.7314 17.7312 19.8256 17.6992 19.911 17.65L20.518 17.299V18C20.518 18.1989 20.597 18.3897 20.7377 18.5303C20.8783 18.671 21.0691 18.75 21.268 18.75C21.4669 18.75 21.6577 18.671 21.7983 18.5303C21.939 18.3897 22.018 18.1989 22.018 18V17.3L22.625 17.65C22.7974 17.7495 23.0022 17.7764 23.1944 17.7248C23.3867 17.6732 23.5505 17.5474 23.65 17.375C23.7494 17.2026 23.7763 16.9978 23.7248 16.8055C23.6732 16.6133 23.5474 16.4495 23.375 16.35L22.768 16L23.375 15.65C23.4603 15.6008 23.5352 15.5352 23.5952 15.457C23.6552 15.3789 23.6992 15.2896 23.7248 15.1945C23.7503 15.0993 23.7568 15 23.744 14.9023C23.7312 14.8046 23.6992 14.7104 23.65 14.625C23.6007 14.5396 23.5352 14.4648 23.457 14.4048C23.3788 14.3448 23.2896 14.3008 23.1944 14.2752C23.0993 14.2497 23 14.2431 22.9023 14.256C22.8046 14.2688 22.7103 14.3008 22.625 14.35L22.018 14.7V14Z" fill="currentColor"/>
</svg>
